Coordinates
version=1
nRows=17
nColumns=24
inDegrees=yes

Units are S.I. units (second, meters, Newtons, ...)
Angles are in degrees.

endheader
time	pelvis_tilt	pelvis_list	pelvis_rotation	pelvis_tx	pelvis_ty	pelvis_tz	hip_flexion_r	hip_adduction_r	hip_rotation_r	knee_angle_r	ankle_angle_r	subtalar_angle_r	mtp_angle_r	hip_flexion_l	hip_adduction_l	hip_rotation_l	knee_angle_l	ankle_angle_l	subtalar_angle_l	mtp_angle_l	lumbar_extension	lumbar_bending	lumbar_rotation
      3.30000000	    -13.43655483	     11.60294784	    -10.24464839	      1.39964131	     -0.02875565	     -0.38631766	     17.68266838	    -16.72505530	      0.99957146	    -57.38496338	    -26.98821507	      9.67358453	     37.84509012	     30.73603710	      8.64064670	    -17.32227194	    -19.22719141	     -6.87326422	      0.35944925	      8.64513459	     14.60759564	    -13.05555655	     10.78951846
      3.30500000	    -13.37356566	     11.44619025	    -10.06292494	      1.40599370	     -0.02755021	     -0.38725943	     18.28919895	    -16.49548312	      1.14782050	    -58.18360620	    -26.19679169	      9.77059679	     38.28473953	     30.07901314	      8.77555436	    -17.12300153	    -18.95157673	     -6.39679558	      0.82851824	      8.33673682	     14.47864599	    -12.90888419	     10.39418729
      3.31000000	    -13.30693237	     11.30220081	     -9.85415598	      1.41241449	     -0.02633799	     -0.38821602	     18.87243348	    -16.29507728	      1.24034015	    -58.92142783	    -25.42964479	      9.94418347	     38.61357694	     29.38974001	      8.94096703	    -16.88010715	    -18.58623324	     -6.15144332	      1.09317718	      8.44982206	     14.36271747	    -12.78212011	      9.97576849
      3.31500000	    -13.22138935	     11.09974573	     -9.64435179	      1.41879319	     -0.02507072	     -0.38918123	     19.40409512	    -16.02861020	      1.32436092	    -59.56978732	    -24.72135431	     10.24901621	     39.01096948	     28.67283783	      9.04841642	    -16.60468481	    -18.23031860	     -5.90641728	      1.35378750	      8.56699389	     14.21077693	    -12.59715500	      9.53865149
      3.32000000	    -13.13034021	     10.87588036	     -9.42034635	      1.42515304	     -0.02379324	     -0.39017795	     19.90977558	    -15.74453659	      1.37933584	    -60.14607376	    -24.06434006	     10.60291575	     39.46084041	     27.94285696	      9.14121630	    -16.29160260	    -17.86738273	     -5.67158356	      1.58620918	      8.65933664	     14.04772433	    -12.39097915	      9.08608910
      3.32500000	    -12.95089312	     10.62527246	     -9.17404257	      1.43153115	     -0.02240762	     -0.39123243	     20.27779021	    -15.46922403	      1.35384078	    -60.60881939	    -23.51077523	     10.84933158	     40.32215369	     27.09999397	      9.24821459	    -15.87449332	    -17.48697071	     -5.44223236	      1.73075305	      8.62688682	     13.77984905	    -12.17508874	      8.60667222
      3.33000000	    -12.92728220	     10.38100944	     -8.93881293	      1.43785106	     -0.02123419	     -0.39222151	     20.84450064	    -15.14561783	      1.39446344	    -61.08354326	    -22.89243759	     11.31517900	     40.72528954	     26.44239388	      9.29468158	    -15.54310372	    -17.13091565	     -5.22750813	      1.92396859	      8.68994307	     13.69597578	    -11.93305814	      8.16287607
      3.33500000	    -12.80425632	     10.11892130	     -8.63965975	      1.44417587	     -0.01997365	     -0.39334526	     21.25241892	    -14.86862311	      1.30330413	    -61.46256471	    -22.31711957	     11.66043195	     41.39090659	     25.66474123	      9.38951288	    -15.06316879	    -16.76096246	     -5.02620539	      1.97973332	      8.58129269	     13.48313827	    -11.70282991	      7.62934666
      3.34000000	    -12.77497822	      9.85944232	     -8.39115276	      1.45046224	     -0.01884049	     -0.39435137	     21.79383505	    -14.53801472	      1.30277739	    -61.82687326	    -21.73307255	     12.12379213	     41.77316722	     24.99150242	      9.41907300	    -14.67419935	    -16.38992740	     -4.82090681	      2.13493804	      8.59875526	     13.39406304	    -11.44403142	      7.20157102
      3.34500000	    -12.70848949	      9.59575698	     -8.09304414	      1.45674296	     -0.01770550	     -0.39542789	     22.26542637	    -14.24292579	      1.21310076	    -62.13124352	    -21.14549845	     12.52432022	     42.17204759	     24.27469829	      9.47399287	    -14.21416559	    -16.01429296	     -4.63890104	      2.21973824	      8.54518851	     13.25559353	    -11.20168699	      6.69783144
      3.35000000	    -12.58419987	      9.33047267	     -7.77783697	      1.46302590	     -0.01654419	     -0.39655868	     22.65593798	    -13.98185724	      1.04517983	    -62.37187043	    -20.57687881	     12.74037542	     42.67096890	     23.48405216	      9.55361232	    -13.65667123	    -15.62119381	     -4.46551204	      2.17744732	      8.34070835	     13.05621926	    -10.96746313	      6.19598532
      3.35500000	    -12.55708175	      9.07503922	     -7.49269658	      1.46922912	     -0.01554835	     -0.39759756	     23.18194761	    -13.68365762	      0.95961510	    -62.60225792	    -19.99085833	     13.07663270	     42.93512274	     22.82028384	      9.57675901	    -13.26063539	    -15.25000151	     -4.28690739	      2.30082811	      8.33423618	     12.96767504	    -10.71964716	      5.73508178
      3.36000000	    -12.49788648	      8.81013791	     -7.16506524	      1.47544742	     -0.01455445	     -0.39870522	     23.64399423	    -13.41409067	      0.78474221	    -62.77807690	    -19.40359068	     13.29307083	     43.13568231	     22.11352830	      9.61197143	    -12.78850995	    -14.86844461	     -4.12824917	      2.36842156	      8.28896600	     12.84207377	    -10.47727940	      5.23489776
      3.36500000	    -12.40083421	      8.54746595	     -6.83742194	      1.48161238	     -0.01357439	     -0.39983792	     24.06578332	    -13.16196290	      0.57698095	    -62.91527221	    -18.82227244	     13.37394174	     43.25111060	     21.36720005	      9.65327113	    -12.28773502	    -14.48197198	     -3.97792298	      2.36409440	      8.19371957	     12.66951268	    -10.23817901	      4.73228965
      3.37000000	    -12.34081300	      8.28864122	     -6.50912652	      1.48778765	     -0.01267664	     -0.40094951	     24.52478249	    -12.91008559	      0.36820165	    -63.01164304	    -18.24682094	     13.44265156	     43.26873986	     20.66074416	      9.67317676	    -11.83812853	    -14.09120733	     -3.82739343	      2.44418866	      8.16890793	     12.54905710	     -9.99712145	      4.25221906
      3.37500000	    -12.30998143	      8.02811994	     -6.16695025	      1.49396569	     -0.01185178	     -0.40207517	     25.00643643	    -12.66392917	      0.13578677	    -63.06213131	    -17.68663086	     13.46787413	     43.23930119	     19.98720219	      9.67625136	    -11.41693530	    -13.70050764	     -3.67875406	      2.58621996	      8.20188175	     12.46561700	     -9.75209139	      3.77803220
      3.38000000	    -12.25503391	      7.76079508	     -5.81841571	      1.50009110	     -0.01105135	     -0.40321046	     25.45703971	    -12.42122624	     -0.12918781	    -63.07396304	    -17.13412296	     13.36890498	     43.10246619	     19.29161662	      9.66954360	    -10.98048776	    -13.31096456	     -3.53767040	      2.69958210	      8.23852160	     12.34887240	     -9.50394366	      3.28821914
